<?xml version="1.0" encoding="UTF-8" standalone="no"?>
<!-- Created with Inkscape (http://www.inkscape.org/) -->

<svg
   xmlns:dc="http://purl.org/dc/elements/1.1/"
   xmlns:cc="http://creativecommons.org/ns#"
   xmlns:rdf="http://www.w3.org/1999/02/22-rdf-syntax-ns#"
   xmlns:svg="http://www.w3.org/2000/svg"
   xmlns="http://www.w3.org/2000/svg"
   xmlns:sodipodi="http://sodipodi.sourceforge.net/DTD/sodipodi-0.dtd"
   xmlns:inkscape="http://www.inkscape.org/namespaces/inkscape"
   width="32"
   height="32"
   id="svg2"
   version="1.1"
   inkscape:version="0.92.4 (5da689c313, 2019-01-14)"
   inkscape:export-filename="C:\Users\fraxl\Documents\qt\glosquiz\edit.png"
   inkscape:export-xdpi="96"
   inkscape:export-ydpi="96"
   sodipodi:docname="edit.svg">
  <defs
     id="defs4" />
  <sodipodi:namedview
     id="base"
     pagecolor="#ffffff"
     bordercolor="#666666"
     borderopacity="1.0"
     inkscape:pageopacity="0.0"
     inkscape:pageshadow="2"
     inkscape:zoom="7.03"
     inkscape:cx="-30.167852"
     inkscape:cy="-15.399123"
     inkscape:document-units="px"
     inkscape:current-layer="layer1"
     showgrid="false"
     inkscape:window-width="1920"
     inkscape:window-height="1057"
     inkscape:window-x="1912"
     inkscape:window-y="-8"
     inkscape:window-maximized="1"
     inkscape:snap-center="true" />
  <metadata
     id="metadata7">
    <rdf:RDF>
      <cc:Work
         rdf:about="">
        <dc:format>image/svg+xml</dc:format>
        <dc:type
           rdf:resource="http://purl.org/dc/dcmitype/StillImage" />
        <dc:title></dc:title>
      </cc:Work>
    </rdf:RDF>
  </metadata>
  <g
     inkscape:label="Layer 1"
     inkscape:groupmode="layer"
     id="layer1"
     transform="translate(0,-1020.3622)">
    <g
       id="g878"
       transform="matrix(0.02311777,0,0,0.02384242,3.9975406,1023.4476)"
       style="fill:#009bff;fill-opacity:1">
      <path
         id="path872"
         d="M 694.4,201.1 215.1,680.4 c -27.8,27.8 -27.8,72.8 0,100.5 27.7,27.8 72.8,27.8 100.5,0 L 794.9,301.6 Z m -27.5,-27.4 -53.3,-53.3 c -1.5,1.1 -2.9,2.1 -4.3,3.5 L 130,603.1 c -14.9,14.9 -14.9,39.2 0,54.1 14.9,14.9 39.2,14.9 54.1,0 L 663.4,177.9 c 1.4,-1.3 2.4,-2.8 3.5,-4.2 z M 821.3,328 c -1.5,1.1 -2.9,2.1 -4.3,3.5 L 337.8,810.8 c -14.9,14.9 -14.9,39.2 0,54.1 14.9,14.9 39.2,14.9 54.1,0 L 871.2,385.6 c 1.3,-1.3 2.4,-2.8 3.5,-4.2 z"
         inkscape:connector-curvature="0"
         style="fill:#009bff;fill-opacity:1" />
      <path
         id="path874"
         d="M 283.3,850.6 C 130.2,850.6 152.1,719.4 152.1,719.4 86.5,719.4 75.6,675.7 75.6,675.7 L 10,992.7 338,916.2 C 276.8,903 283.3,850.6 283.3,850.6 Z"
         inkscape:connector-curvature="0"
         style="fill:#009bff;fill-opacity:1" />
      <path
         id="path876"
         d="M 959.8,154.1 843.2,37.5 C 803,-2.8 737.7,-2.8 697.5,37.5 L 646.9,88 909.2,350.3 959.7,299.8 c 40.4,-40.2 40.4,-105.5 0.1,-145.7 z"
         inkscape:connector-curvature="0"
         style="fill:#009bff;fill-opacity:1" />
    </g>
  </g>
</svg>
