<?xml version="1.0" encoding="UTF-8" standalone="no"?>
<svg
   xmlns:dc="http://purl.org/dc/elements/1.1/"
   xmlns:cc="http://creativecommons.org/ns#"
   xmlns:rdf="http://www.w3.org/1999/02/22-rdf-syntax-ns#"
   xmlns:svg="http://www.w3.org/2000/svg"
   xmlns="http://www.w3.org/2000/svg"
   id="svg858"
   version="1.1"
   viewBox="0 0 33.866666 33.866664"
   height="128"
   width="128">
  <defs
     id="defs852" />
  <metadata
     id="metadata855">
    <rdf:RDF>
      <cc:Work
         rdf:about="">
        <dc:format>image/svg+xml</dc:format>
        <dc:type
           rdf:resource="http://purl.org/dc/dcmitype/StillImage" />
        <dc:title></dc:title>
      </cc:Work>
    </rdf:RDF>
  </metadata>
  <g
     transform="translate(0,-263.13335)"
     id="g1434"
     style="display:inline" />
  <g
     style="display:inline"
     id="g1438"
     transform="translate(0,-263.13335)">
    <path
       style="display:inline;fill:#009bff;fill-opacity:1;fill-rule:evenodd;stroke:#009bff;stroke-width:0.51426083;stroke-linecap:butt;stroke-linejoin:miter;stroke-miterlimit:4;stroke-dasharray:none;stroke-opacity:1"
       d="m 12.324438,279.87051 -10.518185,7.90185 10.518185,7.77014 -3.0640218,-5.68623 c 0,0 2.8465088,2.16914 7.3739108,2.16914 4.527404,0 6.208297,-2.80438 6.208297,-2.80438 v -3.16075 c 0,0 -1.680893,-2.71141 -6.208297,-2.71141 -4.527402,0 -7.3739108,2.16914 -7.3739108,2.16914 z"
       id="path1436-6" />
    <path
       style="display:inline;fill:#009bff;fill-opacity:1;fill-rule:evenodd;stroke:#009bff;stroke-width:0.51426083;stroke-linecap:butt;stroke-linejoin:miter;stroke-miterlimit:4;stroke-dasharray:none;stroke-opacity:1"
       d="m 21.542228,264.6296 10.518184,7.90185 -10.518184,7.77014 3.064021,-5.68623 c 0,0 -2.846508,2.16914 -7.373911,2.16914 -4.527404,0 -6.208297,-2.80438 -6.208297,-2.80438 v -3.16075 c 0,0 1.680893,-2.71141 6.208297,-2.71141 4.527403,0 7.373911,2.16914 7.373911,2.16914 z"
       id="path1436-6-8" />
  </g>
</svg>
